<?xml version="1.0" encoding="UTF-8" standalone="no"?>
<!-- Created with Inkscape (http://www.inkscape.org/) -->

<svg
   width="363.31738mm"
   height="263.13211mm"
   viewBox="0 0 363.31738 263.13211"
   version="1.1"
   id="svg1"
   inkscape:version="1.3.2 (1:1.3.2+202311252150+091e20ef0f)"
   sodipodi:docname="logo.svg"
   xmlns:inkscape="http://www.inkscape.org/namespaces/inkscape"
   xmlns:sodipodi="http://sodipodi.sourceforge.net/DTD/sodipodi-0.dtd"
   xmlns="http://www.w3.org/2000/svg"
   xmlns:svg="http://www.w3.org/2000/svg">
  <sodipodi:namedview
     id="namedview1"
     pagecolor="#ffffff"
     bordercolor="#000000"
     borderopacity="0.25"
     inkscape:showpageshadow="2"
     inkscape:pageopacity="0.0"
     inkscape:pagecheckerboard="0"
     inkscape:deskcolor="#d1d1d1"
     inkscape:document-units="mm"
     inkscape:zoom="0.77732345"
     inkscape:cx="706.91293"
     inkscape:cy="617.50356"
     inkscape:window-width="2186"
     inkscape:window-height="1440"
     inkscape:window-x="0"
     inkscape:window-y="0"
     inkscape:window-maximized="1"
     inkscape:current-layer="layer1" />
  <defs
     id="defs1">
    <clipPath
       clipPathUnits="userSpaceOnUse"
       id="clipPath75">
      <path
         d="M 0,1080 H 1920 V 0 H 0 Z"
         transform="translate(-1106.7891,-258.55621)"
         id="path75" />
    </clipPath>
    <clipPath
       clipPathUnits="userSpaceOnUse"
       id="clipPath77">
      <path
         d="M 0,1080 H 1920 V 0 H 0 Z"
         transform="translate(-1298.9181,-523.89892)"
         id="path77" />
    </clipPath>
    <clipPath
       clipPathUnits="userSpaceOnUse"
       id="clipPath79">
      <path
         d="M 0,1080 H 1920 V 0 H 0 Z"
         transform="translate(-1560.7158,-450.24271)"
         id="path79" />
    </clipPath>
    <clipPath
       clipPathUnits="userSpaceOnUse"
       id="clipPath89">
      <path
         d="M 0,1080 H 1920 V 0 H 0 Z"
         transform="translate(-1179.8569,-813.49902)"
         id="path89" />
    </clipPath>
    <clipPath
       clipPathUnits="userSpaceOnUse"
       id="clipPath91">
      <path
         d="M 0,1080 H 1920 V 0 H 0 Z"
         transform="translate(-946.3735,-525.81301)"
         id="path91" />
    </clipPath>
    <clipPath
       clipPathUnits="userSpaceOnUse"
       id="clipPath93">
      <path
         d="M 0,1080 H 1920 V 0 H 0 Z"
         transform="translate(-1138.9272,-795.28322)"
         id="path93" />
    </clipPath>
    <clipPath
       clipPathUnits="userSpaceOnUse"
       id="clipPath95">
      <path
         d="M 0,1080 H 1920 V 0 H 0 Z"
         transform="translate(-1191.0939,-796.55272)"
         id="path95" />
    </clipPath>
    <clipPath
       clipPathUnits="userSpaceOnUse"
       id="clipPath97">
      <path
         d="M 0,1080 H 1920 V 0 H 0 Z"
         transform="translate(-669.66701,-210.49321)"
         id="path97" />
    </clipPath>
    <clipPath
       clipPathUnits="userSpaceOnUse"
       id="clipPath99">
      <path
         d="M 0,1080 H 1920 V 0 H 0 Z"
         transform="translate(-910.9663,-548.97461)"
         id="path99" />
    </clipPath>
  </defs>
  <g
     inkscape:label="Layer 1"
     inkscape:groupmode="layer"
     id="layer1"
     transform="translate(127.52917,61.383331)">
    <path
       id="path74"
       d="M 0,0 H -28.84 L -75.431,144.651 V -45.258 h -47.921 v 310.601 h 48.808 L -14.642,84.751 45.704,265.343 H 96.288 V -45.258 H 46.591 v 189.909 z"
       style="fill:#000000;fill-opacity:1;fill-rule:nonzero;stroke:none"
       transform="matrix(0.35277776,0,0,-0.35277776,57.495484,182.43196)"
       clip-path="url(#clipPath75)" />
    <path
       id="path76"
       d="M 0,0 V -129.564 H 59.015 V 0 h 51.47 v -310.601 h -51.47 v 134.888 H 0 V -310.601 H -51.47 V 0 Z"
       style="fill:#000000;fill-opacity:1;fill-rule:nonzero;stroke:none"
       transform="matrix(0.35277776,0,0,-0.35277776,125.2743,88.824957)"
       clip-path="url(#clipPath77)" />
    <path
       id="path78"
       d="m 0,0 c 0,22.185 -11.537,28.398 -28.397,28.398 h -27.068 v -99.837 h 27.068 c 16.86,0 28.397,6.213 28.397,28.397 z m 51.47,7.986 v -59.013 c 0,-47.036 -31.06,-65.671 -78.093,-65.671 h -28.842 v -120.247 h -51.47 V 73.656 h 80.312 c 47.033,0 78.093,-18.635 78.093,-65.67"
       style="fill:#000000;fill-opacity:1;fill-rule:nonzero;stroke:none"
       transform="matrix(0.35277776,0,0,-0.35277776,217.63073,114.80923)"
       clip-path="url(#clipPath79)" />
    <path
       id="path88"
       d="M 0,0 C -1.263,-1.774 -22.637,-26.759 -55.893,-70.908 -67.36,-86.092 -81.549,-102.193 -93.901,-118 c -40.684,-51.97 -83.233,-101.263 -98.789,-106.245 -34.207,-10.944 -14.546,24.747 -27.377,29.562 -4.045,1.507 -41.439,-21.879 -57.211,-30.801 -3.603,4.298 -7.628,7.917 -12.058,10.775 39.309,36.503 81.761,74.519 85.709,74.798 4.392,0.278 7.393,-37.9 21.769,-29.305 10.297,6.166 48.3,41.156 87.651,78.437 13.681,12.986 27.552,26.261 40.483,38.658 C -20.141,-19.805 -1.3,-1.252 0,0"
       style="fill:#000000;fill-opacity:1;fill-rule:nonzero;stroke:none"
       transform="matrix(0.35277776,0,0,-0.35277776,83.272171,-13.33952)"
       clip-path="url(#clipPath89)" />
    <path
       id="path90"
       d="m 0,0 c -2.972,-2.563 -17.581,-16.324 -36.541,-34.333 -1.799,-1.713 -3.653,-3.446 -5.542,-5.253 -43.548,-41.341 -101.255,-100.085 -102.674,-101.454 1.419,2.021 63.6,88.864 108.581,144.854 3.166,3.949 6.233,7.728 9.197,11.31 C -8.323,37.737 5.883,52.694 8.923,50.003 19.365,40.754 9.912,8.587 0,0"
       style="fill:#000000;fill-opacity:1;fill-rule:nonzero;stroke:none"
       transform="matrix(0.35277776,0,0,-0.35277776,0.90441725,88.149706)"
       clip-path="url(#clipPath91)" />
    <path
       id="path92"
       d="M 0,0 C -3.875,-3.253 -5.151,4.078 -2.677,12.121 1.954,27.247 16.651,40.329 16.651,40.329 7.173,25.406 10.279,8.619 0,0 M 30.501,59.171 C 7.49,50.699 -17.69,11.455 -22.378,-27.27 c -0.317,-2.655 -0.532,-5.163 -0.633,-7.591 0.633,0.61 1.276,1.231 1.909,1.841 2.937,2.824 5.84,5.603 8.698,8.337 9.23,8.901 17.939,17.329 25.677,24.796 5.106,19.475 18.075,37.414 30.027,41.786 7.478,2.734 12.923,-0.543 15.43,-7.659 -1.728,19.916 -12.256,30.84 -28.229,24.931"
       style="fill:#000000;fill-opacity:1;fill-rule:nonzero;stroke:none"
       transform="matrix(0.35277776,0,0,-0.35277776,68.833092,-6.9133913)"
       clip-path="url(#clipPath93)" />
    <path
       id="path94"
       d="m 0,0 c -7.338,-24.348 -21.925,-48.644 -38.354,-60.681 -10.946,-8.042 -20.762,-9.354 -27.783,-4.816 0.142,0.177 0.261,0.357 0.404,0.534 0.202,0.267 0.401,0.509 0.603,0.776 2.393,3.132 4.733,6.222 7.046,9.291 6.966,9.251 13.604,18.178 19.693,26.395 4.287,-4.474 11.221,-4.124 19.044,1.772 C -11.66,-20.962 -4.693,-10.91 0,0"
       style="fill:#000000;fill-opacity:1;fill-rule:nonzero;stroke:none"
       transform="matrix(0.35277776,0,0,-0.35277776,87.236317,-7.3612435)"
       clip-path="url(#clipPath95)" />
    <path
       id="path96"
       d="m 0,0 c 0,0 -48.179,108.441 27.325,269.881 85.433,182.668 231.411,282.499 370.67,359.598 113.049,62.588 233.158,109.714 233.158,109.714 0,0 -208.486,-67.094 -446.299,-182.241 C -52.959,441.804 -185.422,185.421 0,0"
       style="fill:#000000;fill-opacity:1;fill-rule:nonzero;stroke:none"
       transform="matrix(0.35277776,0,0,-0.35277776,-96.711478,199.38752)"
       clip-path="url(#clipPath97)" />
    <path
       id="path98"
       d="m 0,0 c -0.015,-0.023 -0.039,-0.054 -0.077,-0.077 -2.009,-2.446 -4.058,-4.985 -6.182,-7.594 -9.781,8.438 -23.258,10.041 -39.275,2.8 -41.522,-18.763 -83.673,-88.483 -90.239,-153.938 -2.608,-26.149 0.997,-46.101 8.99,-58.758 1.396,-2.194 2.915,-4.173 4.549,-5.922 h 0.023 c 12.58,-13.401 32.355,-13.531 54.977,2.24 19.383,13.516 37.418,36.498 51.271,63.008 h 0.023 v 0.015 c 0.806,1.565 1.611,3.122 2.386,4.726 1.373,2.723 2.692,5.484 3.95,8.292 -0.751,-2.47 -1.542,-4.948 -2.37,-7.41 -0.43,-1.335 -0.867,-2.654 -1.335,-3.989 -23.449,-69.114 -65.493,-135.037 -112.101,-167.983 -47.666,-33.69 -87.754,-24.815 -105.896,17.773 0,0.039 -0.015,0.054 -0.015,0.092 -1.848,4.304 -3.444,8.968 -4.817,13.954 -0.974,3.589 -1.841,7.371 -2.577,11.299 -3.268,17.635 -3.943,38.676 -1.519,62.839 4.564,45.48 19.123,92.188 39.482,133.687 0.038,0.069 0.076,0.145 0.114,0.222 21.379,43.509 49.132,81.28 78.465,105.911 2.347,1.994 4.694,3.896 7.065,5.684 4.196,3.191 8.422,6.129 12.634,8.722 v 0.015 h 0.023 c 2.838,1.772 5.661,3.391 8.499,4.855 1.803,0.959 3.628,1.857 5.431,2.685 C -45.219,63.023 -12.987,43.977 0,0"
       style="fill:#000000;fill-opacity:1;fill-rule:nonzero;stroke:none"
       transform="matrix(0.35277776,0,0,-0.35277776,-11.586456,79.978809)"
       clip-path="url(#clipPath99)" />
  </g>
</svg>
